<svg width="300" height="300" viewBox="0 0 300 300" fill="none" xmlns="http://www.w3.org/2000/svg">
<path d="M286.715 85.1365L259.446 57.8069L271.281 45.9511C272.475 44.7963 273.427 43.4148 274.082 41.8874C274.737 40.36 275.081 38.7173 275.096 37.055C275.11 35.3927 274.794 33.7441 274.166 32.2055C273.537 30.667 272.609 29.2692 271.436 28.0937C270.262 26.9182 268.867 25.9886 267.331 25.3592C265.795 24.7297 264.15 24.4129 262.49 24.4274C260.831 24.4418 259.191 24.7872 257.666 25.4433C256.142 26.0994 254.763 27.0532 253.61 28.2489L241.775 40.1046L214.493 12.7876C205.894 4.57894 194.472 0 182.594 0C170.716 0 159.293 4.57894 150.694 12.7876C146.502 16.9836 143.176 21.9661 140.907 27.4502C138.639 32.9344 137.471 38.8128 137.471 44.7493C137.471 50.6858 138.639 56.5642 140.907 62.0483C143.176 67.5325 146.502 72.515 150.694 76.711L177.963 104.028L104.304 177.817L77.0224 150.5C68.4234 142.291 57.0009 137.712 45.1229 137.712C33.2449 137.712 21.8224 142.291 13.2235 150.5C9.03135 154.696 5.70577 159.678 3.43681 165.162C1.16785 170.647 0 176.525 0 182.461C0 188.398 1.16785 194.276 3.43681 199.76C5.70577 205.245 9.03135 210.227 13.2235 214.423L40.4927 241.74L28.6577 253.596C27.4641 254.751 26.512 256.132 25.857 257.66C25.202 259.187 24.8573 260.83 24.8429 262.492C24.8284 264.154 25.1447 265.803 25.773 267.342C26.4014 268.88 27.3294 270.278 28.5028 271.453C29.6762 272.629 31.0715 273.559 32.6074 274.188C34.1433 274.817 35.7889 275.134 37.4483 275.12C39.1077 275.105 40.7476 274.76 42.2723 274.104C43.7971 273.448 45.1761 272.494 46.3289 271.298L58.1639 259.442L85.4456 286.76C89.634 290.957 94.607 294.287 100.08 296.559C105.554 298.831 111.42 300 117.345 300C123.27 300 129.136 298.831 134.61 296.559C140.083 294.287 145.056 290.957 149.244 286.76C153.436 282.565 156.762 277.583 159.03 272.1C161.299 266.617 162.467 260.74 162.467 254.804C162.467 248.869 161.299 242.991 159.03 237.508C156.762 232.025 153.436 227.044 149.244 222.849L121.975 195.532L195.71 121.73L222.979 149.047C227.167 153.245 232.14 156.575 237.614 158.847C243.087 161.119 248.954 162.288 254.878 162.288C260.803 162.288 266.669 161.119 272.143 158.847C277.616 156.575 282.589 153.245 286.778 149.047C290.969 144.852 294.295 139.871 296.563 134.388C298.832 128.905 300 123.027 300 117.092C300 111.156 298.832 105.279 296.563 99.796C294.295 94.3129 290.969 89.3315 286.778 85.1365H286.715ZM137.472 254.81C137.477 257.458 136.959 260.08 135.946 262.525C134.934 264.971 133.447 267.191 131.573 269.057C127.743 272.728 122.646 274.777 117.345 274.777C112.044 274.777 106.947 272.728 103.117 269.057L30.8947 196.708C27.1211 192.928 25.0012 187.801 25.0012 182.455C25.0012 177.109 27.1211 171.982 30.8947 168.202C34.6683 164.422 39.7863 162.298 45.1229 162.298C50.4595 162.298 55.5776 164.422 59.3511 168.202L131.573 240.551C133.449 242.419 134.936 244.641 135.949 247.089C136.961 249.536 137.479 252.161 137.472 254.81ZM269.044 131.345C265.213 135.016 260.117 137.065 254.816 137.065C249.515 137.065 244.418 135.016 240.587 131.345L168.365 58.9962C166.497 57.1245 165.015 54.9024 164.004 52.4568C162.992 50.0112 162.472 47.3901 162.472 44.743C162.472 42.096 162.992 39.4748 164.004 37.0293C165.015 34.5837 166.497 32.3616 168.365 30.4898C170.234 28.6181 172.452 27.1333 174.893 26.1203C177.335 25.1073 179.951 24.586 182.594 24.586C185.236 24.586 187.853 25.1073 190.294 26.1203C192.735 27.1333 194.953 28.6181 196.822 30.4898L269.044 102.839C270.914 104.71 272.398 106.931 273.41 109.377C274.422 111.823 274.943 114.444 274.943 117.092C274.943 119.74 274.422 122.361 273.41 124.807C272.398 127.253 270.914 129.474 269.044 131.345Z" fill="white"/>
</svg>
