<svg width="300" height="299" viewBox="0 0 300 299" fill="none" xmlns="http://www.w3.org/2000/svg">
<path d="M95.054 186.541C93.7794 186.648 92.5078 186.704 91.2331 186.704C87.746 186.704 84.3544 186.198 81.0332 185.429L4.1859 262.279C0.413944 266.045 0.413944 272.163 4.1859 275.93L24.0747 295.824C27.8467 299.591 33.9579 299.591 37.7194 295.824L130.08 203.481L112.963 185.013L95.054 186.541Z" fill="white"/>
<path d="M297.288 63.4245C293.681 59.8198 287.845 59.8198 284.239 63.4245L234.438 113.224C229.726 117.931 222.093 117.931 217.381 113.224C212.69 108.52 212.69 100.894 217.381 96.1912L266.935 46.6473C270.679 42.8999 270.679 36.8248 266.935 33.0688C263.174 29.3262 257.101 29.3262 253.357 33.0688L203.823 82.6077C199.111 87.3199 191.487 87.3199 186.775 82.6077C182.072 77.9059 182.072 70.2738 186.775 65.5757L236.565 15.7814C240.181 12.1711 240.181 6.3233 236.565 2.70815C232.958 -0.902715 227.111 -0.902715 223.495 2.70815L167.474 58.7319C154.005 72.2094 149.75 91.1274 154.111 108.341L191.665 145.898C208.878 150.243 227.805 145.986 241.259 132.52L297.287 76.499C300.904 72.8887 300.904 67.0348 297.288 63.4245Z" fill="white"/>
<path d="M25.1704 7.77107C23.2507 5.85079 20.6548 4.79785 17.9891 4.79785C17.4219 4.79785 16.8516 4.84624 16.2949 4.93935C13.0515 5.48817 10.2688 7.57016 8.83915 10.5336C-7.57052 44.4512 -0.712637 85.0361 25.925 111.675L73.5804 159.324C78.2822 164.032 84.6397 166.637 91.2329 166.637C91.938 166.637 92.6448 166.608 93.3498 166.55L121.018 164.188L241.669 294.344C243.542 296.367 246.166 297.542 248.93 297.597C248.987 297.597 249.047 297.597 249.107 297.597C251.809 297.597 254.397 296.529 256.317 294.623L276.98 273.956C278.889 272.051 279.956 269.465 279.956 266.771C279.956 264.077 278.889 261.489 276.988 259.584L25.1704 7.77107Z" fill="white"/>
</svg>
