<svg width="394" height="308" viewBox="0 0 394 308" fill="none" xmlns="http://www.w3.org/2000/svg">
<path d="M181.302 117.401C181.302 60.9168 227.091 15.1277 283.575 15.1277C340.06 15.1277 385.848 60.9168 385.848 117.401C385.848 173.885 340.06 219.674 283.575 219.674C227.091 219.674 181.302 173.885 181.302 117.401Z" fill="white" fill-opacity="0.5" stroke="white" stroke-opacity="0.8" stroke-width="15"/>
<g opacity="0.5">
<path d="M283.575 294.053V219.673ZM283.575 294.053H339.36ZM283.575 294.053H227.79Z" fill="white"/>
<path d="M283.575 294.053V219.673M283.575 294.053H339.36M283.575 294.053H227.79" stroke="white" stroke-width="15" stroke-linecap="round" stroke-linejoin="round"/>
</g>
<path d="M13.9463 126.698V112.752C6.24404 112.752 0 118.996 0 126.698H13.9463ZM125.517 126.698H139.463C139.463 118.996 133.219 112.752 125.517 112.752V126.698ZM13.9463 140.644H125.517V112.752H13.9463V140.644ZM111.57 126.698V238.268H139.463V126.698H111.57ZM27.8926 238.268V126.698H0V238.268H27.8926ZM69.7315 280.107C46.6245 280.107 27.8926 261.375 27.8926 238.268H0C0 276.781 31.2198 308 69.7315 308V280.107ZM111.57 238.268C111.57 261.375 92.8385 280.107 69.7315 280.107V308C108.243 308 139.463 276.781 139.463 238.268H111.57Z" fill="white"/>
<path opacity="0.5" d="M32.5415 126.698H106.922V26.6191C106.922 12.7959 92.3747 3.80518 80.0108 9.98711L42.8207 28.5822C36.5208 31.732 32.5415 38.1709 32.5415 45.2142V126.698Z" fill="white" stroke="white" stroke-width="15"/>
</svg>
