<svg width="419" height="300" viewBox="0 0 419 300" fill="none" xmlns="http://www.w3.org/2000/svg">
<path fill-rule="evenodd" clip-rule="evenodd" d="M418.812 195.483L380.571 196.388L381.753 299.861H297.726L294.25 195.726L331.9 195.483L315.317 110.405L254.027 78.1094L283.924 63.5118C287.192 47.5903 300.751 40.7967 300.751 30.8675C300.751 16.9318 277.945 16.9318 277.945 35.5011L263.344 32.0172C265.012 12.2982 271.965 0 295.223 0C314.065 0 323.035 10.4518 323.035 30.0314C323.035 46.0922 311.145 51.7362 309.129 63.6163L402.229 110.336L418.812 195.483ZM205.634 300H40.6748V200.36L0 201.335L15.6442 109.674L110.1 63.5118C113.368 47.5903 126.926 40.7967 126.926 30.8675C126.926 16.9318 104.121 16.9318 104.121 35.5011L89.5194 32.0172C91.1881 12.2982 98.1411 0 121.399 0C140.241 0 149.211 10.4518 149.211 30.0314C149.211 46.0922 137.321 51.7362 135.305 63.6163L228.405 110.405L244.988 195.483L206.155 196.388L205.634 300ZM196.943 63.7557C200.141 47.66 213.838 40.8315 213.838 30.8675C213.838 16.9318 191.033 16.9318 191.033 35.5011L176.431 32.0172C178.1 12.2982 185.053 0 208.311 0C227.153 0 236.123 10.4518 236.123 30.0314C236.123 47.1374 222.669 52.4329 221.834 65.9854L196.943 63.7557Z" fill="white"/>
</svg>
