<svg width="320" height="320" viewBox="0 0 320 320" fill="none" xmlns="http://www.w3.org/2000/svg">
<path d="M235.207 171.219C243.929 171.219 250.997 163.964 250.997 155.013C250.997 146.064 243.929 138.809 235.207 138.809C226.488 138.809 219.418 146.064 219.418 155.013C219.418 163.964 226.488 171.219 235.207 171.219Z" stroke="white" stroke-width="20" stroke-linecap="round" stroke-linejoin="round"/>
<path d="M280.083 69.9308V96.7496C276.332 96.3001 271.981 96.0006 267.329 96.0006H203.109C171 96.0006 160.346 106.639 160.346 138.701V215.263H70.0185C22.0037 215.263 10 203.277 10 155.332V69.9308C10 21.9862 22.0037 10 70.0185 10H220.065C268.079 10 280.083 21.9862 280.083 69.9308Z" stroke="white" stroke-width="20" stroke-linecap="round" stroke-linejoin="round"/>
<path d="M114.709 215.263V280.083" stroke="white" stroke-width="20" stroke-linecap="round" stroke-linejoin="round"/>
<path d="M10 158.753H159.584" stroke="white" stroke-width="20" stroke-linecap="round" stroke-linejoin="round"/>
<path d="M69.0029 280.083H159.585" stroke="white" stroke-width="20" stroke-linecap="round" stroke-linejoin="round"/>
<path d="M235.207 171.219C243.929 171.219 250.997 163.964 250.997 155.013C250.997 146.064 243.929 138.809 235.207 138.809C226.488 138.809 219.418 146.064 219.418 155.013C219.418 163.964 226.488 171.219 235.207 171.219Z" stroke="white" stroke-width="20" stroke-miterlimit="10" stroke-linecap="round" stroke-linejoin="round"/>
<path d="M280.023 96.3471C276.276 95.896 271.929 95.5955 267.283 95.5955H203.133C171.057 95.5955 160.416 106.271 160.416 138.446V267.149C160.416 299.325 171.057 310 203.133 310H267.283C299.358 310 310 299.325 310 267.149V138.446C310 110.932 302.206 99.2038 280.023 96.3471ZM235.208 138.446C244.051 138.446 251.245 145.663 251.245 154.534C251.245 163.405 244.051 170.622 235.208 170.622C226.365 170.622 219.17 163.405 219.17 154.534C219.17 145.663 226.365 138.446 235.208 138.446ZM235.208 267.149C217.521 267.149 203.133 252.715 203.133 234.973C203.133 227.606 205.681 220.69 209.877 215.277C215.723 207.759 224.866 202.798 235.208 202.798C243.302 202.798 250.646 205.805 256.192 210.616C262.936 216.63 267.283 225.351 267.283 234.973C267.283 252.715 252.894 267.149 235.208 267.149Z" stroke="white" stroke-width="20" stroke-miterlimit="10" stroke-linecap="round" stroke-linejoin="round"/>
<path d="M267.618 235.208C267.618 253.079 253.079 267.618 235.208 267.618C217.337 267.618 202.798 253.079 202.798 235.208C202.798 227.787 205.372 220.82 209.613 215.368C215.52 207.796 224.758 202.798 235.208 202.798C243.386 202.798 250.807 205.827 256.411 210.673C263.226 216.731 267.618 225.515 267.618 235.208Z" stroke="white" stroke-width="20" stroke-miterlimit="10" stroke-linecap="round" stroke-linejoin="round"/>
<path d="M235.207 171.219C243.929 171.219 250.997 163.964 250.997 155.013C250.997 146.064 243.929 138.809 235.207 138.809C226.488 138.809 219.418 146.064 219.418 155.013C219.418 163.964 226.488 171.219 235.207 171.219Z" stroke="white" stroke-width="20" stroke-miterlimit="10" stroke-linecap="round" stroke-linejoin="round"/>
</svg>
